<?xml version="1.0" encoding="UTF-8" standalone="no"?>
<!DOCTYPE svg PUBLIC "-//W3C//DTD SVG 1.1//EN" "http://www.w3.org/Graphics/SVG/1.1/DTD/svg11.dtd">
<svg version="1.1" xmlns="http://www.w3.org/2000/svg" xmlns:xlink="http://www.w3.org/1999/xlink" preserveAspectRatio="xMidYMid meet" viewBox="0 0 640 640" width="640" height="640"><defs><path d="M527.64 265.07L632.69 241.01L637.33 261.24L532.19 285.2L527.64 265.07Z" id="fFX5rMqkf"></path><path d="M578.99 129.74C578.99 129.74 578.99 129.74 578.99 129.74C528.44 170.01 500.36 192.38 494.74 196.86C494.74 196.86 494.74 196.86 494.74 196.86C486.99 187.13 482.69 181.72 481.83 180.64C481.83 180.64 481.83 180.64 481.83 180.64C532.37 140.37 560.46 118 566.07 113.52C566.07 113.52 566.07 113.52 566.07 113.52C573.82 123.25 578.13 128.65 578.99 129.74Z" id="cip3IlJkn"></path><path d="M450.84 27.53L404.16 124.47L422.77 133.47L469.56 36.53L450.84 27.53Z" id="d2mM1pDnSr"></path><path d="M330.29 0C330.29 0 330.29 0 330.29 0C330.29 64.63 330.29 100.54 330.29 107.72C330.29 107.72 330.29 107.72 330.29 107.72C317.88 107.72 310.99 107.72 309.62 107.72C309.62 107.72 309.62 107.72 309.62 107.72C309.62 43.09 309.62 7.18 309.62 0C309.62 0 309.62 0 309.62 0C322.02 0 328.91 0 330.29 0Z" id="k1cvaQH7Xw"></path><path d="M189.07 27.53L170.36 36.53L217.14 133.47L235.75 124.47L189.07 27.53Z" id="bhxXmB4vv"></path><path d="M158.07 180.71C158.07 180.71 158.07 180.71 158.07 180.71C150.31 190.43 146 195.83 145.14 196.91C145.14 196.91 145.14 196.91 145.14 196.91C94.62 156.6 66.55 134.2 60.94 129.73C60.94 129.73 60.94 129.73 60.94 129.73C68.7 120 73.01 114.6 73.87 113.52C73.87 113.52 73.87 113.52 73.87 113.52C124.39 153.83 152.46 176.23 158.07 180.71Z" id="deIpsOw8"></path><path d="M7.22 241.01L2.67 261.24L107.72 285.2L112.27 265.07L7.22 241.01Z" id="f14pHbgibn"></path><path d="M393.28 562.48C393.46 560.79 393.55 559 393.55 557.22C393.55 556.33 393.55 551.84 393.55 543.77C306.09 559.54 257.5 568.3 247.78 570.05C249.03 576.29 251.26 582.18 254.29 587.61C282.09 582.58 379.38 564.99 393.28 562.48Z" id="c8bvqkhUsR"></path><path d="M393.55 530.14L393.55 511.52L246.45 537.98L246.45 556.69L393.55 530.14Z" id="b5rA7GKkIu"></path><path d="M262.93 599.64C267.11 604.28 271.93 608.2 277.36 611.4C277.36 613.31 277.36 622.84 277.36 640L362.72 640C362.72 622.84 362.72 613.31 362.72 611.4C375.73 603.56 385.71 591.26 390.52 576.65C365.01 581.25 275.69 597.34 262.93 599.64Z" id="bUi1yjLnb"></path><path d="M319.96 157.08C228.36 157.08 153.96 231.39 153.96 323.07C153.96 388.38 191.65 444.78 246.45 471.96C246.45 475.45 246.45 492.95 246.45 524.44L393.55 497.89C393.55 482.33 393.55 473.68 393.55 471.96C448.35 444.78 486.04 388.38 486.04 323.07C486.04 231.39 411.73 157.08 319.96 157.08Z" id="e5aKs6smiB"></path></defs><g><g><g><use xlink:href="#fFX5rMqkf" opacity="1" fill="#f5f812" fill-opacity="1"></use><g><use xlink:href="#fFX5rMqkf" opacity="1" fill-opacity="0" stroke="#000000" stroke-width="1" stroke-opacity="0"></use></g></g><g><use xlink:href="#cip3IlJkn" opacity="1" fill="#f5f812" fill-opacity="1"></use><g><use xlink:href="#cip3IlJkn" opacity="1" fill-opacity="0" stroke="#000000" stroke-width="1" stroke-opacity="0"></use></g></g><g><use xlink:href="#d2mM1pDnSr" opacity="1" fill="#f5f812" fill-opacity="1"></use><g><use xlink:href="#d2mM1pDnSr" opacity="1" fill-opacity="0" stroke="#000000" stroke-width="1" stroke-opacity="0"></use></g></g><g><use xlink:href="#k1cvaQH7Xw" opacity="1" fill="#f5f812" fill-opacity="1"></use><g><use xlink:href="#k1cvaQH7Xw" opacity="1" fill-opacity="0" stroke="#000000" stroke-width="1" stroke-opacity="0"></use></g></g><g><use xlink:href="#bhxXmB4vv" opacity="1" fill="#f5f812" fill-opacity="1"></use><g><use xlink:href="#bhxXmB4vv" opacity="1" fill-opacity="0" stroke="#000000" stroke-width="1" stroke-opacity="0"></use></g></g><g><use xlink:href="#deIpsOw8" opacity="1" fill="#f5f812" fill-opacity="1"></use><g><use xlink:href="#deIpsOw8" opacity="1" fill-opacity="0" stroke="#000000" stroke-width="1" stroke-opacity="0"></use></g></g><g><use xlink:href="#f14pHbgibn" opacity="1" fill="#f5f812" fill-opacity="1"></use><g><use xlink:href="#f14pHbgibn" opacity="1" fill-opacity="0" stroke="#000000" stroke-width="1" stroke-opacity="0"></use></g></g><g><use xlink:href="#c8bvqkhUsR" opacity="1" fill="#f5f812" fill-opacity="1"></use><g><use xlink:href="#c8bvqkhUsR" opacity="1" fill-opacity="0" stroke="#000000" stroke-width="1" stroke-opacity="0"></use></g></g><g><use xlink:href="#b5rA7GKkIu" opacity="1" fill="#f5f812" fill-opacity="1"></use><g><use xlink:href="#b5rA7GKkIu" opacity="1" fill-opacity="0" stroke="#000000" stroke-width="1" stroke-opacity="0"></use></g></g><g><use xlink:href="#bUi1yjLnb" opacity="1" fill="#f5f812" fill-opacity="1"></use><g><use xlink:href="#bUi1yjLnb" opacity="1" fill-opacity="0" stroke="#000000" stroke-width="1" stroke-opacity="0"></use></g></g><g><use xlink:href="#e5aKs6smiB" opacity="1" fill="#f5f812" fill-opacity="1"></use><g><use xlink:href="#e5aKs6smiB" opacity="1" fill-opacity="0" stroke="#000000" stroke-width="1" stroke-opacity="0"></use></g></g></g></g></svg>