<?xml version="1.0" encoding="UTF-8" standalone="no"?>
<!DOCTYPE svg PUBLIC "-//W3C//DTD SVG 1.1//EN" "http://www.w3.org/Graphics/SVG/1.1/DTD/svg11.dtd">
<svg version="1.1" xmlns="http://www.w3.org/2000/svg" xmlns:xlink="http://www.w3.org/1999/xlink" preserveAspectRatio="xMidYMid meet" viewBox="0 0 640 640" width="640" height="640"><defs><path d="M372.96 121.59L197.71 121.59L197.71 92.17L214.63 92.17L214.63 10.84C214.63 10.84 214.63 10.84 214.63 10.84C214.63 4.79 246.29 0 285.29 0C324.28 0 355.88 4.79 355.88 10.84C355.88 10.84 355.88 10.84 355.88 10.84L355.88 92.17L372.96 92.17L372.96 121.59Z" id="a1sdsOwoF3"></path><path d="M511.96 377.96L509.71 640L128.04 640L133.71 216.13L196.37 142.08L375.79 142.08L460.62 201.33L511.96 377.96ZM395.14 227.75L393.58 228.03L392.06 228.42L390.56 228.94L389.09 229.57L387.66 230.34L386.27 231.24L384.92 232.27L383.62 233.45L382.37 234.77L381.18 236.24L380.05 237.87L378.98 239.65L377.98 241.59L377.05 243.71L376.2 245.99L375.42 248.45L374.73 251.08L374.13 253.9L373.61 256.91L373.2 260.11L372.88 263.51L372.66 267.1L372.55 270.9L372.55 274.91L405.88 390.04L405.93 390.12L406.07 390.33L406.3 390.68L406.62 391.15L407.03 391.73L407.51 392.4L408.08 393.16L408.72 393.98L409.44 394.87L410.22 395.81L411.08 396.79L412 397.79L412.98 398.8L414.02 399.82L415.12 400.83L416.26 401.82L417.46 402.77L418.71 403.68L420 404.54L421.34 405.32L422.71 406.03L424.12 406.64L425.56 407.16L427.03 407.55L428.53 407.83L430.05 407.96L431.59 407.94L433.15 407.77L434.73 407.41L436.32 406.88L437.92 406.15L439.53 405.21L441.14 404.05L442.76 402.65L444.37 401.02L445.97 399.13L447.57 396.97L449.16 394.54L450.74 391.81L452.3 388.79L436.88 261.95L436.87 261.92L436.85 261.83L436.81 261.68L436.76 261.47L436.69 261.21L436.6 260.9L436.5 260.54L436.38 260.13L436.24 259.67L436.08 259.18L435.9 258.64L435.7 258.07L435.49 257.45L435.25 256.81L434.99 256.13L434.71 255.43L434.4 254.69L434.08 253.94L433.72 253.16L433.35 252.36L432.95 251.54L432.53 250.71L432.08 249.86L431.61 249L431.11 248.13L430.58 247.26L430.03 246.38L429.45 245.5L428.84 244.62L428.2 243.74L427.53 242.87L426.83 242L426.11 241.14L425.35 240.29L424.56 239.46L423.74 238.64L422.89 237.84L422 237.07L421.08 236.31L420.13 235.58L418.72 234.58L417.26 233.63L415.78 232.74L414.26 231.9L412.72 231.12L411.15 230.4L409.57 229.76L407.97 229.19L406.37 228.69L404.75 228.28L403.13 227.95L401.52 227.71L399.9 227.57L398.3 227.53L396.71 227.59L395.14 227.75Z" id="i3hIbmt97N"></path></defs><g><g><g><use xlink:href="#a1sdsOwoF3" opacity="1" fill="#1c72db" fill-opacity="1"></use><g><use xlink:href="#a1sdsOwoF3" opacity="1" fill-opacity="0" stroke="#000000" stroke-width="1" stroke-opacity="0"></use></g></g><g><use xlink:href="#i3hIbmt97N" opacity="1" fill="#1c72db" fill-opacity="1"></use><g><use xlink:href="#i3hIbmt97N" opacity="1" fill-opacity="0" stroke="#000000" stroke-width="1" stroke-opacity="0"></use></g></g></g></g></svg>