<?xml version="1.0" encoding="UTF-8" standalone="no"?>
<!DOCTYPE svg PUBLIC "-//W3C//DTD SVG 1.1//EN" "http://www.w3.org/Graphics/SVG/1.1/DTD/svg11.dtd">
<svg version="1.1" xmlns="http://www.w3.org/2000/svg" xmlns:xlink="http://www.w3.org/1999/xlink" preserveAspectRatio="xMidYMid meet" viewBox="0 0 640 640" width="640" height="640"><defs><path d="M283.3 48.09L283.5 52.21L283.82 56.27L284.25 60.25L284.8 64.17L285.47 68.03L286.27 71.82L287.2 75.55L288.27 79.23L289.47 82.86L290.82 86.44L292.32 89.97L293.96 93.46L295.76 96.9L297.71 100.31L299.83 103.69L302.11 107.03L304.57 110.34L307.19 113.63L310 116.89L312.98 120.13L316.15 123.36L319.51 126.57L323.06 129.76L326.8 132.95L330.75 136.13L334.9 139.31L339.26 142.49L343.83 145.67L348.62 148.86L353.62 152.05L358.85 155.26L364.31 158.48L370 161.71L375.92 164.97L382.08 168.25L388.49 171.55L395.14 174.88L402.04 178.25L407.91 181.35L413.34 184.77L418.34 188.49L422.92 192.48L427.1 196.74L430.89 201.24L434.32 205.95L437.39 210.87L440.13 215.97L442.54 221.23L444.64 226.63L446.46 232.16L448 237.79L449.27 243.49L450.31 249.27L451.11 255.08L451.7 260.92L452.08 266.76L452.29 272.59L452.33 278.38L452.21 284.12L451.96 289.78L451.59 295.35L451.11 300.8L450.54 306.12L449.89 311.29L449.18 316.28L448.43 321.08L447.66 325.67L446.86 330.02L446.07 334.12L445.3 337.96L444.56 341.5L443.87 344.73L443.24 347.62L442.7 350.17L442.24 352.35L441.9 354.14L441.68 355.52L441.61 356.47L441.69 356.55L441.94 356.42L442.35 356.1L442.93 355.59L443.66 354.93L444.56 354.11L445.61 353.15L446.82 352.07L448.19 350.88L449.71 349.6L451.39 348.24L453.21 346.8L455.19 345.32L457.32 343.8L459.59 342.25L462.01 340.69L464.58 339.14L467.28 337.6L470.14 336.09L473.13 334.63L476.26 333.23L479.53 331.91L482.93 330.67L486.48 329.53L490.15 328.51L493.96 327.62L497.9 326.87L501.97 326.28L506.17 325.87L510.49 325.64L514.95 325.61L519.52 325.79L524.22 326.2L529.04 326.86L533.99 327.77L539.05 328.95L544.23 330.42L549.52 332.19L554.93 334.26L560.46 336.67L560.16 336.68L559.63 336.84L558.86 337.17L557.88 337.66L556.7 338.31L555.32 339.11L553.76 340.07L552.04 341.19L550.15 342.47L548.13 343.9L545.97 345.49L543.69 347.23L541.31 349.12L538.83 351.17L536.27 353.37L533.64 355.72L530.95 358.22L528.22 360.86L525.45 363.66L522.66 366.61L519.87 369.7L517.07 372.94L514.29 376.33L511.54 379.86L508.83 383.54L506.17 387.36L503.57 391.32L501.05 395.42L498.62 399.67L496.3 404.06L494.08 408.58L491.99 413.25L490.04 418.06L488.24 423L486.6 428.08L485.13 433.3L483.85 438.65L482.77 444.14L481.9 449.76L481.26 455.51L478.73 474.42L474.75 492.33L469.41 509.23L462.79 525.12L454.99 540L446.07 553.86L436.13 566.7L425.24 578.52L413.51 589.31L401 599.07L387.8 607.79L374 615.48L359.68 622.13L344.93 627.73L329.83 632.29L314.46 635.8L298.91 638.25L283.26 639.65L267.6 639.98L252.02 639.25L236.58 637.46L221.39 634.59L206.53 630.65L192.07 625.63L178.1 619.53L164.72 612.35L151.99 604.08L140.01 594.72L128.87 584.26L118.63 572.71L109.4 560.06L101.25 546.3L94.26 531.44L88.53 515.46L84.14 498.37L81.16 480.16L79.7 460.84L79.82 440.38L81.61 418.8L85.16 396.09L85.24 396.28L85.51 396.75L85.94 397.48L86.55 398.44L87.32 399.63L88.24 401.01L89.31 402.58L90.52 404.31L91.87 406.19L93.35 408.2L94.95 410.32L96.66 412.53L98.48 414.81L100.41 417.14L102.43 419.51L104.54 421.89L106.73 424.27L108.99 426.63L111.32 428.95L113.72 431.21L116.17 433.4L118.67 435.49L121.21 437.47L123.79 439.31L126.39 441.01L129.02 442.53L131.66 443.87L134.32 445L136.97 445.91L139.62 446.57L142.25 446.97L144.87 447.08L147.47 446.9L150.03 446.41L152.56 445.57L155.04 444.38L157.47 442.82L159.84 440.86L162.15 438.49L164.38 435.7L167 431.7L169.1 427.64L170.7 423.52L171.84 419.33L172.54 415.08L172.83 410.76L172.75 406.39L172.31 401.96L171.55 397.47L170.5 392.92L169.19 388.32L167.64 383.67L165.88 378.97L163.94 374.21L161.86 369.41L159.65 364.56L157.35 359.66L154.98 354.72L152.58 349.74L150.17 344.72L147.79 339.65L145.45 334.55L143.19 329.41L141.04 324.23L139.03 319.02L137.18 313.77L135.52 308.5L134.08 303.19L132.9 297.85L131.99 292.49L131.39 287.1L131.13 281.69L131.23 276.25L131.73 270.79L132.65 265.31L134.01 259.81L135.86 254.29L138.21 248.76L141.11 243.21L144.56 237.65L145.84 235.82L147.18 234.01L148.58 232.23L150.03 230.48L151.54 228.76L153.11 227.07L154.73 225.41L156.39 223.79L158.11 222.2L159.87 220.65L161.67 219.14L163.51 217.67L165.4 216.24L167.32 214.85L169.27 213.5L171.26 212.2L173.28 210.95L175.33 209.74L177.41 208.58L179.52 207.48L181.64 206.42L183.79 205.42L185.96 204.47L188.14 203.58L190.34 202.75L192.55 201.97L194.77 201.26L197.01 200.6L199.25 200.01L201.49 199.49L203.74 199.03L205.99 198.63L208.24 198.31L210.48 198.05L212.72 197.86L214.96 197.75L217.18 197.71L219.4 197.75L221.6 197.86L223.78 198.05L223.1 199.52L222.42 201.18L221.77 203.03L221.15 205.04L220.56 207.21L220 209.53L219.49 211.98L219.03 214.57L218.62 217.26L218.27 220.06L217.99 222.95L217.77 225.92L217.64 228.97L217.58 232.07L217.62 235.22L217.75 238.4L217.97 241.61L218.3 244.84L218.74 248.07L219.3 251.29L219.98 254.49L220.79 257.67L221.73 260.8L222.8 263.88L224.02 266.9L225.39 269.84L226.92 272.7L228.6 275.46L230.46 278.12L232.48 280.66L234.68 283.06L237.07 285.33L239.64 287.45L242.41 289.4L245.37 291.18L248.55 292.77L251.93 294.17L255.53 295.36L259.35 296.33L263.4 297.07L265.87 297.33L268.29 297.38L270.66 297.21L272.98 296.84L275.24 296.26L277.44 295.47L279.56 294.49L281.59 293.32L283.54 291.96L285.4 290.42L287.15 288.69L288.8 286.79L290.33 284.71L291.74 282.47L293.02 280.06L294.17 277.49L295.17 274.76L296.03 271.89L296.73 268.86L297.26 265.69L297.63 262.38L297.82 258.93L297.83 255.35L297.65 251.65L297.27 247.82L296.69 243.87L295.9 239.8L294.89 235.62L293.66 231.34L292.2 226.95L290.5 222.46L288.55 217.88L286.36 213.2L283.91 208.44L281.19 203.59L278.2 198.66L274.94 193.66L271.39 188.59L267.54 183.45L263.4 178.25L260.81 174.78L258.56 171.16L256.62 167.38L255 163.48L253.67 159.44L252.62 155.3L251.83 151.07L251.3 146.74L251.01 142.35L250.94 137.9L251.07 133.4L251.41 128.86L251.93 124.31L252.61 119.75L253.45 115.19L254.43 110.65L255.53 106.13L256.75 101.66L258.06 97.25L259.46 92.9L260.92 88.63L262.44 84.46L264 80.39L265.59 76.43L267.19 72.61L268.79 68.94L270.38 65.41L271.93 62.06L273.45 58.89L274.9 55.91L276.29 53.14L277.58 50.59L278.78 48.27L279.87 46.2L280.83 44.38L281.64 42.84L282.3 41.57L282.79 40.6L283.1 39.94L283.21 39.6L283.2 43.88L283.3 48.09ZM266.34 402L267.44 404.77L268.32 407.42L268.99 409.97L269.44 412.42L269.69 414.77L269.75 417.03L269.63 419.21L269.34 421.3L268.88 423.32L268.26 425.28L267.5 427.17L266.6 429L265.57 430.79L264.42 432.53L263.16 434.23L261.79 435.89L260.33 437.53L258.79 439.14L257.17 440.74L255.48 442.32L253.74 443.9L251.95 445.48L250.11 447.06L248.25 448.66L246.36 450.27L244.46 451.91L242.55 453.57L240.64 455.27L238.75 457L236.89 458.78L235.05 460.61L233.25 462.5L231.5 464.45L229.8 466.47L228.18 468.56L226.63 470.73L225.16 472.99L223.78 475.33L222.74 477.31L221.73 479.47L220.75 481.8L219.81 484.3L218.93 486.94L218.11 489.71L217.37 492.61L216.71 495.62L216.14 498.72L215.69 501.91L215.35 505.17L215.13 508.49L215.06 511.86L215.13 515.26L215.36 518.68L215.75 522.11L216.33 525.54L217.1 528.95L218.07 532.34L219.24 535.68L220.64 538.96L222.27 542.18L224.14 545.32L226.26 548.37L228.65 551.31L231.31 554.14L234.25 556.84L237.48 559.39L241.02 561.79L244.88 564.03L249.06 566.08L253.57 567.94L258.43 569.59L263.65 571.03L269.23 572.23L275.2 573.19L281.54 573.9L288.29 574.34L295.45 574.5L303.02 574.36L308.97 573.98L314.63 573.29L320.02 572.3L325.13 571.04L329.96 569.51L334.52 567.72L338.8 565.69L342.82 563.42L346.57 560.92L350.06 558.22L353.29 555.31L356.25 552.22L358.96 548.95L361.41 545.51L363.6 541.92L365.55 538.19L367.25 534.32L368.7 530.34L369.9 526.25L370.86 522.06L371.59 517.79L372.07 513.44L372.32 509.03L372.33 504.57L372.12 500.07L371.67 495.54L371 491L370.1 486.45L368.98 481.91L367.64 477.38L366.08 472.89L364.31 468.44L362.32 464.04L360.12 459.71L357.71 455.45L355.09 451.28L352.27 447.21L349.24 443.24L346.02 439.4L342.59 435.7L340.26 433.36L337.88 431.12L335.43 428.96L332.94 426.9L330.41 424.91L327.84 423.01L325.25 421.19L322.63 419.46L319.99 417.8L317.34 416.21L314.69 414.71L312.04 413.27L309.4 411.91L306.77 410.61L304.16 409.39L301.58 408.23L299.02 407.14L296.51 406.11L294.04 405.14L291.63 404.23L289.27 403.38L286.97 402.59L284.74 401.85L282.59 401.17L280.52 400.53L278.53 399.95L276.64 399.42L274.85 398.93L273.17 398.49L271.6 398.08L270.14 397.73L268.81 397.41L267.62 397.13L266.55 396.88L265.64 396.67L264.87 396.5L264.25 396.35L263.8 396.24L263.52 396.15L263.4 396.09L264.99 399.11L266.34 402Z" id="g17YSxO0Q1"></path><path d="M342.59 59.41C342.59 38.79 359.42 18.98 382.22 0C384.51 16.51 372.35 41.26 382.22 59.41C389.88 72.83 402.04 88.03 402.04 99.02C402.04 113.75 396.56 127.18 382.22 138.63C380.05 133.11 376.26 115.05 362.41 99.02C350.29 86.02 342.59 70.4 342.59 59.41Z" id="aPms7tUt2"></path></defs><g><g><g><use xlink:href="#g17YSxO0Q1" opacity="1" fill="#f69a27" fill-opacity="1"></use><g><use xlink:href="#g17YSxO0Q1" opacity="1" fill-opacity="0" stroke="#000000" stroke-width="1" stroke-opacity="0"></use></g></g><g><use xlink:href="#aPms7tUt2" opacity="1" fill="#f69a27" fill-opacity="1"></use><g><use xlink:href="#aPms7tUt2" opacity="1" fill-opacity="0" stroke="#000000" stroke-width="1" stroke-opacity="0"></use></g></g></g></g></svg>