<?xml version="1.0" encoding="UTF-8" standalone="no"?>
<!DOCTYPE svg PUBLIC "-//W3C//DTD SVG 1.1//EN" "http://www.w3.org/Graphics/SVG/1.1/DTD/svg11.dtd">
<svg version="1.1" xmlns="http://www.w3.org/2000/svg" xmlns:xlink="http://www.w3.org/1999/xlink" preserveAspectRatio="xMidYMid meet" viewBox="0 0 640 640" width="640" height="640"><defs><path d="M329.62 402.79C353.76 376.42 364.85 362.08 406.77 327.54C450.1 345.25 527.64 311.62 527.64 311.62C475.48 325.29 435.6 317.54 421.44 313.79C424.48 311.42 475.94 274.17 491.52 252.63C534.6 253.96 570.18 216.96 570.18 216.96C569.01 215.96 547.22 232.67 506.02 234.67C548.68 172 546.77 114.34 546.77 114.34C546.77 114.34 531.02 166.96 490.93 224.67C482.72 183.71 493.19 155.83 492.02 154.92C492.02 154.92 464.1 200.92 476.97 243.21C455.06 268.25 420.52 289.88 407.77 299.58C406.77 296.95 393.44 253.25 406.39 188.7C406.39 188.7 371.27 269.87 393.26 311.95C366.35 332.66 359.14 337.74 314.19 387.99C212.39 311.78 299.79 175.49 376.02 143.74C454.44 111.04 487.1 117.63 558.97 0C637.68 116.58 624.77 290.16 549.35 380.67C456.89 491.66 360.94 428.62 329.62 402.79Z" id="cGl7W5XfD"></path><path d="M215.4 446.25C215.66 445.45 216 444.79 216.25 443.87C258.17 293 27.73 314 27.73 314C27.73 314 59.57 363 77.32 416.42C97.84 478.33 181.71 529.79 211.86 456.25C190.09 426.95 158.96 394.91 114.92 368.83C161.23 390 193.33 418.75 215.4 446.25Z" id="c8hiWbyAQ"></path><path d="M313.96 388.12C274.45 431.62 259.06 468.79 255.31 516.16C249.33 499.87 237.37 473.79 215.39 446.25C214.35 449.87 213.14 453.12 211.85 456.24C235.27 487.78 244.33 530.75 249.66 544.83C249.66 584.16 253.97 603.83 257.43 636.66C257.43 636.66 278.6 649.16 284.5 625.83C272.54 606.07 260.81 470.12 329.62 402.79C329.35 402.45 313.71 388.45 313.96 388.12Z" id="arBWGeYac"></path></defs><g><g><g><use xlink:href="#cGl7W5XfD" opacity="1" fill="#66bd35" fill-opacity="1"></use><g><use xlink:href="#cGl7W5XfD" opacity="1" fill-opacity="0" stroke="#000000" stroke-width="1" stroke-opacity="0"></use></g></g><g><use xlink:href="#c8hiWbyAQ" opacity="1" fill="#66bd35" fill-opacity="1"></use><g><use xlink:href="#c8hiWbyAQ" opacity="1" fill-opacity="0" stroke="#000000" stroke-width="1" stroke-opacity="0"></use></g></g><g><use xlink:href="#arBWGeYac" opacity="1" fill="#66bd35" fill-opacity="1"></use><g><use xlink:href="#arBWGeYac" opacity="1" fill-opacity="0" stroke="#000000" stroke-width="1" stroke-opacity="0"></use></g></g></g></g></svg>