<?xml version="1.0" encoding="UTF-8" standalone="no"?>
<!DOCTYPE svg PUBLIC "-//W3C//DTD SVG 1.1//EN" "http://www.w3.org/Graphics/SVG/1.1/DTD/svg11.dtd">
<svg version="1.1" xmlns="http://www.w3.org/2000/svg" xmlns:xlink="http://www.w3.org/1999/xlink" preserveAspectRatio="xMidYMid meet" viewBox="0 0 640 640" width="640" height="640"><defs><path d="M486.94 0.12L489.99 0.26L493.04 0.47L496.09 0.73L499.13 1.05L502.17 1.43L505.2 1.87L508.22 2.37L511.23 2.92L514.24 3.53L517.24 4.21L520.22 4.94L523.2 5.72L526.16 6.57L529.1 7.47L532.04 8.44L534.95 9.46L537.85 10.54L540.74 11.68L543.6 12.87L546.45 14.13L549.28 15.44L552.08 16.81L554.87 18.24L557.63 19.73L560.37 21.28L563.08 22.88L565.77 24.54L568.43 26.26L571.07 28.04L573.67 29.88L576.25 31.77L578.8 33.73L581.31 35.74L583.8 37.81L586.25 39.94L588.67 42.12L591.06 44.37L593.41 46.67L597.95 51.4L602.26 56.26L606.33 61.26L610.18 66.38L613.79 71.61L617.17 76.96L620.31 82.41L623.22 87.95L625.9 93.58L628.35 99.28L630.56 105.07L632.54 110.91L634.29 116.82L635.81 122.77L637.09 128.77L638.13 134.81L638.95 140.87L639.53 146.96L639.88 153.06L640 159.17L639.88 165.28L639.53 171.39L638.95 177.47L638.13 183.54L637.09 189.58L635.81 195.58L634.29 201.54L632.54 207.44L630.56 213.29L628.35 219.08L625.9 224.79L623.22 230.42L620.31 235.97L617.17 241.42L613.79 246.77L610.18 252.01L606.33 257.13L602.26 262.14L597.95 267.01L593.41 271.74L398.28 466.87L271.71 593.41L266.98 597.95L262.11 602.26L257.11 606.34L251.98 610.18L246.75 613.79L241.4 617.17L235.95 620.32L230.41 623.23L224.78 625.91L219.06 628.35L213.28 630.57L207.43 632.55L201.53 634.29L195.57 635.81L189.57 637.09L183.53 638.14L177.47 638.95L171.38 639.54L165.28 639.89L159.17 640L153.06 639.89L146.96 639.54L140.87 638.95L134.81 638.14L128.77 637.09L122.77 635.81L116.81 634.29L110.91 632.55L105.06 630.57L99.28 628.35L93.57 625.91L87.94 623.23L82.4 620.32L76.96 617.17L71.61 613.79L66.37 610.18L61.25 606.34L56.26 602.26L51.39 597.95L46.67 593.41L42.12 588.67L37.8 583.8L33.72 578.8L29.87 573.68L26.25 568.43L22.87 563.08L19.72 557.63L16.81 552.09L14.12 546.45L11.67 540.74L9.46 534.96L7.47 529.11L5.72 523.2L4.21 517.24L2.92 511.24L1.87 505.2L1.06 499.14L0.47 493.05L0.12 486.94L0 480.84L0.12 474.73L0.47 468.62L1.05 462.54L1.87 456.47L2.92 450.43L4.2 444.43L5.71 438.48L7.46 432.57L9.44 426.73L11.66 420.94L14.11 415.24L16.79 409.61L19.7 404.07L22.85 398.62L26.23 393.27L29.84 388.04L33.69 382.92L37.77 377.92L42.08 373.06L46.63 368.33L207.46 207.5L368.33 46.67L370.67 44.37L373.05 42.12L375.47 39.94L377.92 37.81L380.4 35.74L382.91 33.73L385.46 31.77L388.03 29.88L390.64 28.04L393.27 26.26L395.93 24.54L398.61 22.88L401.32 21.28L404.06 19.73L406.82 18.24L409.6 16.81L412.4 15.44L415.23 14.13L418.07 12.87L420.93 11.68L423.82 10.54L426.71 9.46L429.63 8.44L432.56 7.47L435.51 6.57L438.47 5.72L441.44 4.94L444.42 4.21L447.42 3.53L450.42 2.92L453.43 2.37L456.46 1.87L459.49 1.43L462.52 1.05L465.56 0.73L468.61 0.47L471.66 0.26L474.71 0.12L477.77 0.03L480.82 0L483.88 0.03L486.94 0.12ZM476.41 48.55L474.21 48.65L472.02 48.8L469.84 49L467.67 49.23L465.5 49.51L463.35 49.83L461.21 50.19L459.08 50.59L456.96 51.03L454.85 51.52L452.75 52.04L450.67 52.61L448.6 53.21L446.55 53.86L444.5 54.55L442.48 55.27L440.47 56.04L438.47 56.84L436.49 57.69L434.53 58.57L432.58 59.49L430.66 60.46L428.75 61.45L426.86 62.49L424.98 63.57L423.13 64.68L421.3 65.83L419.49 67.02L417.7 68.25L415.93 69.51L414.18 70.81L412.46 72.14L410.76 73.51L409.08 74.92L407.43 76.37L405.8 77.85L404.2 79.36L402.62 80.91L241.7 241.74L398.28 398.33L559.15 237.5L562.31 234.21L565.3 230.82L568.13 227.35L570.8 223.79L573.3 220.14L575.65 216.42L577.83 212.63L579.85 208.77L581.71 204.86L583.41 200.88L584.95 196.86L586.32 192.79L587.53 188.68L588.58 184.53L589.47 180.35L590.2 176.15L590.77 171.93L591.17 167.69L591.41 163.44L591.49 159.19L591.41 154.94L591.17 150.69L590.77 146.45L590.2 142.23L589.47 138.03L588.58 133.85L587.53 129.7L586.32 125.59L584.95 121.53L583.41 117.5L581.71 113.53L579.85 109.61L577.83 105.76L575.65 101.97L573.3 98.25L570.8 94.61L568.13 91.05L565.3 87.58L562.31 84.2L559.15 80.91L557.57 79.36L555.97 77.85L554.33 76.37L552.68 74.92L551 73.51L549.29 72.14L547.57 70.81L545.82 69.51L544.05 68.25L542.25 67.02L540.44 65.83L538.6 64.68L536.75 63.57L534.87 62.49L532.98 61.45L531.07 60.46L529.14 59.49L527.19 58.57L525.22 57.69L523.24 56.84L521.24 56.04L519.23 55.27L517.2 54.55L515.15 53.86L513.09 53.21L511.02 52.61L508.94 52.04L506.84 51.52L504.73 51.03L502.6 50.59L500.47 50.19L498.32 49.83L496.17 49.51L494 49.23L491.82 49L489.64 48.8L487.45 48.65L485.25 48.55L483.04 48.48L480.82 48.46L478.61 48.48L476.41 48.55Z" id="aITUo7k2O"></path></defs><g><g><g><use xlink:href="#aITUo7k2O" opacity="1" fill="#d80101" fill-opacity="1"></use><g><use xlink:href="#aITUo7k2O" opacity="1" fill-opacity="0" stroke="#000000" stroke-width="1" stroke-opacity="0"></use></g></g></g></g></svg>